<?xml version="1.0" encoding="UTF-8" standalone="no"?>
<svg
   fill="none"
   height="28"
   viewBox="0 0 136 28"
   width="136"
   version="1.1"
   id="svg10"
   xmlns="http://www.w3.org/2000/svg"
   xmlns:svg="http://www.w3.org/2000/svg">
  <defs
     id="defs14" />
  <path
     d="M 0.53339429,1.0119591 H 11.641898 c 3.55146,0 5.327191,1.5370253 5.327191,4.611077 V 23.01937 c 0,3.097333 -1.775731,4.64601 -5.327191,4.64601 H 0.53339429 V 1.0119591 M 10.960717,22.512851 V 6.1644879 c 0,-0.6986477 -0.372612,-1.0479718 -1.1178424,-1.0479718 H 6.5243029 V 23.560823 h 3.3185717 c 0.7452304,0 1.1178424,-0.349324 1.1178424,-1.047972 z M 24.043931,6.9155342 h 4.995336 c 1.839773,0 3.155562,0.3958895 3.947357,1.1877019 0.803449,0.8034457 1.205171,1.9562129 1.205171,3.4583079 V 23.01937 c 0,1.502095 -0.401722,2.654863 -1.205171,3.458309 -0.791795,0.791795 -2.107584,1.187701 -3.947357,1.187701 h -4.995336 c -1.839771,0 -3.161378,-0.395906 -3.964826,-1.187701 -0.791803,-0.803446 -1.1877,-1.956214 -1.1877,-3.458309 V 11.561544 c 0,-1.502095 0.395897,-2.6548622 1.1877,-3.4583079 0.803448,-0.7918124 2.125055,-1.1877019 3.964826,-1.1877019 M 28.44542,22.42552 V 12.155395 c 0,-0.698649 -0.378434,-1.047973 -1.135304,-1.047973 H 25.75562 c -0.745223,0 -1.117834,0.349324 -1.117834,1.047973 V 22.42552 c 0,0.698648 0.372611,1.047972 1.117834,1.047972 h 1.554496 c 0.75687,0 1.135304,-0.349324 1.135304,-1.047972 z M 52.507869,6.9155342 47.931725,17.010998 52.507869,27.66538 H 46.377237 L 42.028149,17.010998 46.429632,6.9155342 h 6.078237 M 36.159507,27.66538 V -0.38533334 h 5.816245 V 27.66538 Z M 52.717028,4.155875 v -4.54120834 h 6.078236 V 4.155875 h -6.078236 m 5.93851,23.509505 H 52.839291 V 6.9155342 h 5.816247 z M 65.788742,6.9155342 h 4.995333 c 1.839773,0 3.155561,0.3958895 3.947356,1.1877019 0.803458,0.8034457 1.20517,1.9562129 1.20517,3.4583079 V 23.01937 c 0,1.502095 -0.401712,2.654863 -1.20517,3.458309 -0.791795,0.791795 -2.107583,1.187701 -3.947356,1.187701 h -4.995333 c -1.839773,0 -3.161384,-0.395906 -3.964831,-1.187701 -0.791801,-0.803446 -1.1877,-1.956214 -1.1877,-3.458309 V 11.561544 c 0,-1.502095 0.395899,-2.6548622 1.1877,-3.4583079 0.803447,-0.7918124 2.125058,-1.1877019 3.964831,-1.1877019 M 70.190224,22.42552 V 12.155395 c 0,-0.698649 -0.378435,-1.047973 -1.135304,-1.047973 h -1.554494 c -0.745223,0 -1.117833,0.349324 -1.117833,1.047973 V 22.42552 c 0,0.698648 0.37261,1.047972 1.117833,1.047972 h 1.554494 c 0.756869,0 1.135304,-0.349324 1.135304,-1.047972 z M 93.781097,10.356375 H 87.755263 V 6.1644879 c 0,-0.6986477 -0.366795,-1.0479718 -1.100372,-1.0479718 h -1.711687 c -0.75687,0 -1.135305,0.3493241 -1.135305,1.0479718 V 22.512851 c 0,0.384256 0.08733,0.657899 0.261991,0.820912 0.163015,0.151431 0.454122,0.22706 0.873314,0.22706 h 1.711687 c 0.395897,0 0.675359,-0.07562 0.838375,-0.22706 0.174663,-0.162959 0.261997,-0.436656 0.261997,-0.820912 v -4.069625 h 6.025834 v 4.611077 c 0,3.074051 -1.769906,4.611077 -5.309719,4.611077 h -5.379593 c -3.516527,0 -5.274794,-1.537026 -5.274794,-4.611077 V 5.6230361 c 0,-3.0740517 1.758267,-4.611077 5.274794,-4.611077 h 5.379593 c 3.539813,0 5.309719,1.5370253 5.309719,4.611077 z m 7.721363,7.335806 V 27.66538 H 95.546499 V 1.0119591 h 10.986241 c 3.5165,0 5.27478,1.5370253 5.27478,4.611077 v 7.4580669 c 0,2.4569 -1.11783,3.93573 -3.35351,4.436415 l 4.69842,10.147862 h -6.4101 l -4.19191,-9.973199 h -1.04796 m 0,-12.2787396 v 8.0344516 h 3.23124 c 0.38426,0 0.66372,-0.07564 0.8384,-0.22706 0.163,-0.151433 0.24452,-0.407539 0.24452,-0.768513 V 6.4614132 c 0,-0.6986476 -0.36097,-1.0479718 -1.08292,-1.0479718 z M 119.13598,27.66538 h -5.2748 V 1.0119591 h 6.53237 l 4.40148,15.0907959 4.40149,-15.0907959 h 6.54982 V 27.66538 h -5.29226 V 9.7625245 l -3.42337,12.1215435 h -4.45388 L 119.13598,9.8149239 Z"
     style="color:#5863ff;white-space:pre;fill:#ffffff;stroke-width:1.74662"
     id="path196" />
</svg>
