<?xml version="1.0" standalone="no"?>
<!DOCTYPE svg PUBLIC "-//W3C//DTD SVG 20010904//EN"
 "http://www.w3.org/TR/2001/REC-SVG-20010904/DTD/svg10.dtd">
<svg version="1.0" xmlns="http://www.w3.org/2000/svg"
 width="4000.000000pt" height="800.000000pt" viewBox="0 0 4000.000000 800.000000"
 preserveAspectRatio="xMidYMid meet">

<g transform="translate(0.000000,800.000000) scale(0.100000,-0.100000)"
fill="#000000" stroke="none">
<path d="M1965 7939 c-326 -41 -660 -207 -905 -449 -183 -180 -293 -376 -357
-635 -16 -65 -17 -254 -20 -2795 -4 -3000 -7 -2819 57 -3011 69 -208 176 -376
350 -550 187 -188 362 -296 596 -368 228 -70 -11 -65 2837 -68 1412 -2 2567
-1 2567 1 0 2 -167 311 -371 685 l-372 681 -2033 0 -2034 0 0 925 0 925 1870
0 1870 0 0 685 0 685 -1870 0 -1870 0 0 965 0 965 2034 0 2033 0 372 681 c204
374 371 683 371 685 0 8 -5057 1 -5125 -7z"/>
<path d="M9522 7938 c-117 -14 -291 -62 -408 -112 -458 -194 -774 -573 -848
-1015 -14 -85 -16 -431 -16 -3423 l0 -3328 790 0 790 0 0 3260 0 3260 1084 0
c686 0 1122 -4 1187 -11 369 -37 682 -167 896 -372 180 -173 286 -389 327
-670 19 -125 22 -651 5 -773 -78 -564 -432 -933 -1003 -1049 -186 -38 -344
-45 -966 -45 l-575 0 -420 -677 c-231 -372 -421 -680 -423 -685 -2 -4 272 -8
610 -8 l613 -1 984 -1114 985 -1115 995 0 995 0 -36 38 c-66 69 -2098 2341
-2098 2346 0 2 37 17 83 32 514 169 979 470 1295 839 289 336 470 739 543
1202 19 118 22 193 26 518 3 249 1 423 -7 505 -57 614 -288 1108 -720 1541
-229 230 -452 390 -745 534 -382 188 -761 287 -1244 325 -168 13 -2594 11
-2699 -2z"/>
<path d="M17565 7943 c-280 -38 -499 -119 -710 -261 -310 -209 -496 -475 -578
-827 l-22 -90 -2 -3353 -3 -3352 795 0 795 0 0 3260 0 3261 1148 -4 c1122 -3
1149 -4 1257 -25 293 -56 509 -149 694 -299 201 -162 334 -400 386 -693 23
-128 32 -582 15 -746 -34 -335 -153 -591 -367 -794 -187 -179 -425 -285 -756
-337 -83 -13 -226 -17 -766 -22 l-663 -6 -370 -595 c-203 -327 -394 -635 -424
-683 l-55 -88 1128 4 c985 3 1146 6 1271 21 586 69 1045 230 1477 518 488 324
813 732 990 1240 113 325 152 642 142 1158 -6 304 -21 457 -63 650 -78 354
-254 716 -491 1010 -92 115 -267 288 -391 388 -458 368 -966 569 -1652 653
-67 9 -481 13 -1425 14 -731 1 -1343 1 -1360 -2z"/>
<path d="M24130 4005 l0 -3945 795 0 795 0 0 3945 0 3945 -795 0 -795 0 0
-3945z"/>
<path d="M29140 6300 l0 -1650 -1224 0 c-984 0 -1226 -3 -1234 -13 -6 -7 -198
-314 -427 -682 l-416 -670 1648 -5 1648 -5 3 -1607 2 -1608 795 0 795 0 0
3945 0 3945 -795 0 -795 0 0 -1650z"/>
<path d="M31580 7945 c0 -6 2286 -3698 2378 -3840 201 -311 469 -619 676 -775
l56 -42 0 -1614 0 -1614 800 0 800 0 0 1624 0 1624 63 50 c174 139 419 427
625 734 57 85 2309 3697 2385 3826 l19 32 -854 0 -853 -1 -1085 -1691 c-597
-930 -1092 -1699 -1100 -1709 -14 -17 -100 114 -1111 1689 l-1096 1707 -851 3
c-469 1 -852 0 -852 -3z"/>
</g>
</svg>
