<?xml version="1.0" encoding="UTF-8" standalone="no"?>
<svg
   fill="none"
   height="28"
   viewBox="0 0 136 28"
   width="136"
   version="1.1"
   id="svg10"
   sodipodi:docname="logo.svg"
   inkscape:version="1.2 (dc2aedaf03, 2022-05-15)"
   xmlns:inkscape="http://www.inkscape.org/namespaces/inkscape"
   xmlns:sodipodi="http://sodipodi.sourceforge.net/DTD/sodipodi-0.dtd"
   xmlns="http://www.w3.org/2000/svg"
   xmlns:svg="http://www.w3.org/2000/svg">
  <defs
     id="defs14" />
  <sodipodi:namedview
     id="namedview12"
     pagecolor="#ffffff"
     bordercolor="#000000"
     borderopacity="0.25"
     inkscape:showpageshadow="2"
     inkscape:pageopacity="0.0"
     inkscape:pagecheckerboard="0"
     inkscape:deskcolor="#d1d1d1"
     showgrid="false"
     inkscape:zoom="9.9117647"
     inkscape:cx="68"
     inkscape:cy="14.023739"
     inkscape:window-width="1920"
     inkscape:window-height="1017"
     inkscape:window-x="-8"
     inkscape:window-y="1064"
     inkscape:window-maximized="1"
     inkscape:current-layer="svg10" />
  <g
     fill="#5864ff"
     id="g8"
     transform="matrix(1.0173422,0,0,1,-7.7024606,0)"
     style="fill:#ffffff">
    <path
       d="M 30.224616,4.9880228 17.626803,16.551065 14.512751,13.593109 c -1.557146,-1.479092 -3.963427,-1.479092 -5.5203326,0 -1.557147,1.478864 -1.557147,3.764754 0,5.243618 l 5.5203326,5.243617 c 0.849134,0.806797 1.981714,1.075808 3.114052,1.075808 1.132339,0 2.406282,-0.403515 3.53862,-1.075808 l 14.579526,-13.44519 c 1.556906,-1.4790925 1.556906,-3.764754 0,-5.2436171 C 34.046441,3.9124445 31.781522,3.5091598 30.224616,4.9880228 Z"
       id="path2"
       style="stroke-width:2.35509;fill:#ffffff" />
  </g>
  <g
     aria-label="Dokio"
     transform="matrix(1.0464244,0,0,0.95563516,-3.5311573,0)"
     id="text502"
     style="font-size:32.059px;fill:#ffffff;stroke-width:2.67157">
    <path
       d="m 52.720899,3.7571762 q 3.622667,0 5.482088,1.8914809 1.891481,1.8594219 1.891481,5.4820889 v 7.694159 q 0,3.622667 -1.891481,5.514148 -1.859421,1.859422 -5.482088,1.859422 H 40.21789 V 3.7571762 Z m 1.60295,7.3735698 q 0,-2.8853101 -2.88531,-2.8853101 h -5.45003 V 21.710215 h 5.45003 q 2.88531,0 2.88531,-2.88531 z"
       style="font-family:'Russo One';-inkscape-font-specification:'Russo One';fill:#ffffff"
       id="path735" />
    <path
       d="m 80.291615,21.389625 q 0,2.404425 -1.378537,3.782962 -1.346478,1.346478 -3.750903,1.346478 h -7.373569 q -2.404425,0 -3.782962,-1.346478 -1.346478,-1.378537 -1.346478,-3.782962 v -7.373569 q 0,-2.404425 1.346478,-3.750903 1.378537,-1.3785371 3.782962,-1.3785371 h 7.373569 q 2.404425,0 3.750903,1.3785371 1.378537,1.346478 1.378537,3.750903 z M 74.68129,14.496941 q 0,-1.28236 -1.282359,-1.28236 h -3.84708 q -1.28236,0 -1.28236,1.28236 v 6.411799 q 0,1.28236 1.28236,1.28236 h 3.84708 q 1.282359,0 1.282359,-1.28236 z"
       style="font-family:'Russo One';-inkscape-font-specification:'Russo One';fill:#ffffff"
       id="path737" />
    <path
       d="m 88.787222,19.466085 v 6.73239 H 83.176898 V 3.7571762 h 5.610324 V 15.138121 h 2.56472 l 3.52649,-5.9309151 h 5.930918 l -4.808853,8.1750441 4.808853,8.816225 h -5.930918 l -3.686785,-6.73239 z"
       style="font-family:'Russo One';-inkscape-font-specification:'Russo One';fill:#ffffff"
       id="path739" />
    <path
       d="M 109.46529,9.8483858 V 26.198475 h -5.61033 V 14.176351 h -2.40442 V 9.8483858 Z m -5.61033,-6.4117996 h 5.61033 V 7.924846 h -5.61033 z"
       style="font-family:'Russo One';-inkscape-font-specification:'Russo One';fill:#ffffff"
       id="path741" />
    <path
       d="m 129.98304,21.389625 q 0,2.404425 -1.37854,3.782962 -1.34648,1.346478 -3.7509,1.346478 h -7.37357 q -2.40443,0 -3.78296,-1.346478 -1.34648,-1.378537 -1.34648,-3.782962 v -7.373569 q 0,-2.404425 1.34648,-3.750903 1.37853,-1.3785371 3.78296,-1.3785371 h 7.37357 q 2.40442,0 3.7509,1.3785371 1.37854,1.346478 1.37854,3.750903 z m -5.61033,-6.892684 q 0,-1.28236 -1.28236,-1.28236 h -3.84708 q -1.28236,0 -1.28236,1.28236 v 6.411799 q 0,1.28236 1.28236,1.28236 h 3.84708 q 1.28236,0 1.28236,-1.28236 z"
       style="font-family:'Russo One';-inkscape-font-specification:'Russo One';fill:#ffffff"
       id="path743" />
  </g>
</svg>
